<?xml version="1.0" encoding="UTF-8"?>
<svg width="400" height="400" viewBox="0 0 400 400" fill="none" xmlns="http://www.w3.org/2000/svg">
  <!-- Background Circle -->
  <circle cx="200" cy="200" r="200" fill="#1E40AF" opacity="0.1"/>
  
  <!-- Robot Head -->
  <path d="M140 160 h120 a20 20 0 0 1 20 20 v80 a20 20 0 0 1 -20 20 h-120 a20 20 0 0 1 -20 -20 v-80 a20 20 0 0 1 20 -20" fill="#3B82F6"/>
  
  <!-- Eyes -->
  <circle cx="180" cy="200" r="15" fill="#fff"/>
  <circle cx="220" cy="200" r="15" fill="#fff"/>
  <circle cx="180" cy="200" r="8" fill="#000"/>
  <circle cx="220" cy="200" r="8" fill="#000"/>
  
  <!-- Antenna -->
  <path d="M200 140 v-30" stroke="#3B82F6" stroke-width="8" stroke-linecap="round"/>
  <circle cx="200" cy="100" r="10" fill="#3B82F6"/>
  
  <!-- Mouth -->
  <path d="M170 230 q30 20 60 0" stroke="#fff" stroke-width="4" fill="none"/>
  
  <!-- Circuit Lines -->
  <path d="M140 190 h-20 M260 190 h20" stroke="#3B82F6" stroke-width="4" opacity="0.5"/>
  <path d="M140 210 h-10 M260 210 h10" stroke="#3B82F6" stroke-width="4" opacity="0.5"/>
  
  <!-- Pulse Effect -->
  <circle cx="200" cy="200" r="160" stroke="#3B82F6" stroke-width="2" opacity="0.2">
    <animate attributeName="r" values="160;170;160" dur="2s" repeatCount="indefinite"/>
    <animate attributeName="opacity" values="0.2;0.1;0.2" dur="2s" repeatCount="indefinite"/>
  </circle>
  <circle cx="200" cy="200" r="180" stroke="#3B82F6" stroke-width="2" opacity="0.1">
    <animate attributeName="r" values="180;190;180" dur="2s" repeatCount="indefinite"/>
    <animate attributeName="opacity" values="0.1;0.05;0.1" dur="2s" repeatCount="indefinite"/>
  </circle>
</svg> 