<?xml version="1.0" encoding="utf-8"?>
<svg xmlns="http://www.w3.org/2000/svg" width="60" height="60" viewBox="0 0 60 60" fill="none">
<circle cx="30" cy="30" r="30" fill="white"/>
<path d="M47.3966 26.7422H39.6784V25.2517C39.6781 25.034 39.5605 24.8334 39.3707 24.7267L31.1034 20.0802V17.7147H32.7388V18.6138C32.7388 18.947 33.009 19.2172 33.3422 19.2172H38.2724C38.6057 19.2171 38.8757 18.9468 38.8756 18.6136C38.8756 18.5437 38.8634 18.4744 38.8397 18.4086L38.3448 17.0026L38.8457 15.6267C38.959 15.3133 38.7968 14.9674 38.4834 14.8541C38.4177 14.8303 38.3484 14.8182 38.2784 14.8181H36.0336V13.9431C36.0336 13.6098 35.7634 13.3397 35.4302 13.3397H31.1034V12.6034C31.1034 12.2702 30.8333 12 30.5 12C30.1667 12 29.8966 12.2702 29.8966 12.6034V20.0802L21.6293 24.7207C21.4395 24.8273 21.3219 25.028 21.3216 25.2457V26.7362H13.6034C13.2702 26.7362 13 27.0064 13 27.3396V43.1258C13 43.4591 13.2702 43.7293 13.6034 43.7293H47.3966C47.7298 43.7293 48 43.4591 48 43.1258V27.3457C48 27.0124 47.7298 26.7422 47.3966 26.7422ZM36.0336 17.1112L36.0095 17.0871V16.0491H37.3853L37.1379 16.8215C37.0885 16.956 37.0885 17.1035 37.1379 17.2379L37.4216 18.0103H33.9457V17.7147H35.4302C35.7634 17.7147 36.0336 17.4445 36.0336 17.1112ZM31.1034 14.5465H34.8267V15.4457V16.5078H31.1034V14.5465ZM21.3216 42.5224H14.2069V27.9491H21.3216V42.5224ZM29.8966 42.5224H26.7284V35.631H29.8966V42.5224ZM34.2716 42.5224H31.1034V35.631H34.2716V42.5224ZM38.4957 42.5224H35.4784V35.0276C35.4784 34.6943 35.2083 34.4241 34.875 34.4241H26.125C25.7917 34.4241 25.5216 34.6943 25.5216 35.0276V42.5224H22.5043V25.6259L30.5 21.1241L38.4716 25.6017L38.4957 27.3396V42.5224ZM46.7931 42.5224H39.6784V27.9491H46.7931V42.5224Z" fill="#007FB6"/>
<path d="M30.4999 22.9707C29.1024 22.974 27.9714 24.1077 27.9714 25.5052C27.9748 26.9016 29.1095 28.0309 30.5059 28.0276C31.9024 28.0243 33.0317 26.8896 33.0283 25.4931C33.025 24.0991 31.8939 22.9707 30.4999 22.9707ZM30.4999 26.8207C29.77 26.8174 29.181 26.223 29.1844 25.4931C29.1877 24.768 29.7747 24.1809 30.4999 24.1776C31.2307 24.1809 31.8214 24.7743 31.8214 25.5052H31.8275C31.8242 26.235 31.2298 26.824 30.4999 26.8207Z" fill="#007FB6"/>
<path d="M16.868 29.2767H15.6611V31.6905H16.868V29.2767Z" fill="#007FB6"/>
<path d="M19.8431 29.2767H18.6362V31.6905H19.8431V29.2767Z" fill="#007FB6"/>
<path d="M26.7527 29.2767H24.3389V30.4836H26.7527V29.2767Z" fill="#007FB6"/>
<path d="M31.707 29.2767H29.2932V30.4836H31.707V29.2767Z" fill="#007FB6"/>
<path d="M36.6611 29.2767H34.2473V30.4836H36.6611V29.2767Z" fill="#007FB6"/>
<path d="M26.7527 32.0888H24.3389V33.2957H26.7527V32.0888Z" fill="#007FB6"/>
<path d="M31.707 32.0888H29.2932V33.2957H31.707V32.0888Z" fill="#007FB6"/>
<path d="M36.6611 32.0888H34.2473V33.2957H36.6611V32.0888Z" fill="#007FB6"/>
<path d="M16.868 34.0258H15.6611V36.4396H16.868V34.0258Z" fill="#007FB6"/>
<path d="M19.8431 34.0258H18.6362V36.4396H19.8431V34.0258Z" fill="#007FB6"/>
<path d="M16.868 38.781H15.6611V41.1948H16.868V38.781Z" fill="#007FB6"/>
<path d="M19.8431 38.781H18.6362V41.1948H19.8431V38.781Z" fill="#007FB6"/>
<path d="M42.3639 29.2767H41.157V31.6905H42.3639V29.2767Z" fill="#007FB6"/>
<path d="M45.3387 29.2767H44.1318V31.6905H45.3387V29.2767Z" fill="#007FB6"/>
<path d="M42.3639 34.0258H41.157V36.4396H42.3639V34.0258Z" fill="#007FB6"/>
<path d="M45.3387 34.0258H44.1318V36.4396H45.3387V34.0258Z" fill="#007FB6"/>
<path d="M42.3639 38.781H41.157V41.1948H42.3639V38.781Z" fill="#007FB6"/>
<path d="M45.3387 38.781H44.1318V41.1948H45.3387V38.781Z" fill="#007FB6"/>
</svg>