<?xml version="1.0" encoding="utf-8"?>
<svg xmlns="http://www.w3.org/2000/svg" width="60" height="60" viewBox="0 0 60 60" fill="none">
<circle cx="30" cy="30" r="30" fill="white"/>
<path d="M46.25 14H14.75C13.7835 14 13 14.7835 13 15.75V40.25C13 41.2165 13.7835 42 14.75 42H31.6667C31.9888 42 32.25 41.7388 32.25 41.4167C32.25 41.0945 31.9888 40.8333 31.6667 40.8333H14.9915L16.7415 39.0833H31.6667C31.9888 39.0833 32.25 38.8222 32.25 38.5C32.25 38.1778 31.9888 37.9167 31.6667 37.9167H17.0833V18.0833H20.5833C20.9055 18.0833 21.1667 17.8222 21.1667 17.5C21.1667 17.1778 20.9055 16.9167 20.5833 16.9167H16.7415L14.9915 15.1667H46.0085L44.2585 16.9167H23.5C23.1778 16.9167 22.9167 17.1778 22.9167 17.5C22.9167 17.8222 23.1778 18.0833 23.5 18.0833H43.9167V37.9167H41.5833C41.2612 37.9167 41 38.1778 41 38.5C41 38.8222 41.2612 39.0833 41.5833 39.0833H44.2585L45.9647 40.7896C45.8677 40.8171 45.7675 40.8318 45.6667 40.8333H41.5833C41.2612 40.8333 41 41.0945 41 41.4167C41 41.7388 41.2612 42 41.5833 42H45.6667C46.9553 42 48 40.9553 48 39.6667V15.75C48 14.7835 47.2165 14 46.25 14ZM15.9167 38.2585L14.1667 40.0085V15.9915L15.9167 17.7415V38.2585ZM46.7896 39.9648L45.0833 38.2585V17.7415L46.8333 15.9915V39.6667C46.8318 39.7675 46.8171 39.8677 46.7896 39.9648Z" fill="#007FB6"/>
<path d="M34.5833 21.5833C34.9054 21.5833 35.1666 21.3222 35.1666 21C35.1666 20.6778 34.9054 20.4167 34.5833 20.4167H26.4166C26.0944 20.4167 25.8333 20.6778 25.8333 21C25.8333 21.3222 26.0944 21.5833 26.4166 21.5833H34.5833Z" fill="#007FB6"/>
<path d="M28.75 33.25H20.5833C20.2612 33.25 20 33.5112 20 33.8333C20 34.1555 20.2612 34.4167 20.5833 34.4167H28.75C29.0722 34.4167 29.3333 34.1555 29.3333 33.8333C29.3333 33.5112 29.0722 33.25 28.75 33.25Z" fill="#007FB6"/>
<path d="M36.9166 23.9167C36.9166 23.5945 36.6554 23.3333 36.3332 23.3333H24.6666C24.3444 23.3333 24.0833 23.5945 24.0833 23.9167C24.0833 24.2388 24.3444 24.5 24.6666 24.5H36.3332C36.6554 24.5 36.9166 24.2388 36.9166 23.9167Z" fill="#007FB6"/>
<path d="M32.2937 36.7057C32.6003 36.9782 33.0099 37.1044 33.4167 37.0516V43.9717C33.4153 44.3774 33.6247 44.7547 33.9698 44.9681C34.3149 45.1814 34.746 45.2002 35.1083 45.0176L36.625 44.2534L38.1457 45.0199C38.5081 45.2007 38.9383 45.1807 39.2823 44.9671C39.6262 44.7534 39.8348 44.3766 39.8333 43.9717V37.0516C40.2403 37.1046 40.6502 36.9784 40.9568 36.7057C41.6685 35.9934 41.0461 34.664 41.2071 34.2726C41.3587 33.908 42.75 33.411 42.75 32.375C42.75 31.339 41.3599 30.8467 41.2071 30.4774C41.0496 30.0971 41.6662 28.7537 40.9562 28.0443C40.2463 27.335 38.9105 27.9539 38.5232 27.7929C38.1562 27.6413 37.6604 26.25 36.625 26.25C35.5896 26.25 35.092 27.6418 34.7274 27.7929C34.3232 27.9545 33.0083 27.3298 32.2932 28.0443C31.578 28.7589 32.2039 30.086 32.0429 30.4774C31.8912 30.842 30.5 31.339 30.5 32.375C30.5 33.411 31.8901 33.9033 32.0429 34.2726C32.2004 34.6529 31.5838 35.9963 32.2937 36.7057ZM37.15 43.211C36.8194 43.0462 36.4306 43.0462 36.1 43.211L34.5833 43.9717V36.9367C34.632 36.9356 34.6804 36.9425 34.7268 36.9571C35.0937 37.1088 35.5896 38.5 36.625 38.5C37.6604 38.5 38.158 37.1082 38.5226 36.9571C38.5692 36.9423 38.6178 36.9352 38.6667 36.936V43.9758L37.15 43.211ZM31.6667 32.3832C31.6964 32.2665 32.0394 32.0104 32.2232 31.8728C33.181 31.1582 33.3402 30.8426 33.1647 29.5814C33.1216 29.3507 33.1021 29.1161 33.1063 28.8814C33.3492 28.8521 33.5952 28.8635 33.8343 28.9153C35.0827 29.0903 35.4017 28.9415 36.1251 27.9743C36.2596 27.7644 36.4254 27.5764 36.6168 27.4167C36.7335 27.4464 36.989 27.7888 37.1267 27.9732C37.8494 28.9403 38.1685 29.0891 39.4174 28.9147C39.6481 28.8714 39.8827 28.8519 40.1174 28.8563C40.1468 29.099 40.1353 29.3449 40.0836 29.5838C39.9792 30.027 39.9943 30.4899 40.1273 30.9254C40.4126 31.6079 41.4783 32.0833 41.5833 32.375C41.4824 32.6579 40.4137 33.145 40.1314 33.8258C39.9983 34.2612 39.9832 34.7242 40.0877 35.1674C40.1307 35.3982 40.1502 35.6327 40.146 35.8674C39.9031 35.8968 39.6571 35.8853 39.418 35.8336C38.1568 35.6586 37.843 35.8196 37.1272 36.7745C36.9922 36.9843 36.8258 37.1722 36.6337 37.3316C36.5171 37.3018 36.2616 36.9594 36.1239 36.7751C35.4012 35.8073 35.0827 35.6598 33.8332 35.8336C33.6024 35.8768 33.3679 35.8964 33.1332 35.8919C33.1038 35.6493 33.1153 35.4034 33.167 35.1645C33.342 33.9051 33.1827 33.5895 32.2255 32.8732C32.0152 32.7394 31.8268 32.5741 31.6667 32.3832Z" fill="#007FB6"/>
<path d="M36.625 35C38.0748 35 39.25 33.8248 39.25 32.375C39.25 30.9253 38.0748 29.75 36.625 29.75C35.1753 29.75 34 30.9253 34 32.375C34.0016 33.8241 35.1759 34.9984 36.625 35ZM36.625 30.9167C37.4304 30.9167 38.0833 31.5696 38.0833 32.375C38.0833 33.1804 37.4304 33.8333 36.625 33.8333C35.8196 33.8333 35.1667 33.1804 35.1667 32.375C35.1667 31.5696 35.8196 30.9167 36.625 30.9167Z" fill="#007FB6"/>
<path d="M28.75 30.9167C27.705 30.9216 26.6717 30.6955 25.7242 30.2546C26.3298 29.7891 26.7167 29.0947 26.7941 28.3348C26.7941 27.9848 26.6407 26.8333 24.6667 26.8333C22.6927 26.8333 22.5392 27.9825 22.5392 28.3348C22.617 29.0937 23.0042 29.787 23.6097 30.2511C22.6625 30.694 21.6289 30.9213 20.5833 30.9167C20.2612 30.9167 20 31.1778 20 31.5C20 31.8222 20.2612 32.0833 20.5833 32.0833C22.0166 32.09 23.4267 31.7212 24.6731 31.0135C25.9174 31.7149 27.3216 32.0834 28.75 32.0833C29.0722 32.0833 29.3333 31.8222 29.3333 31.5C29.3333 31.1778 29.0722 30.9167 28.75 30.9167ZM24.662 29.6147C23.9678 29.0803 23.7059 28.574 23.7059 28.3348C23.7059 28.0957 24.2233 28 24.6667 28C25.11 28 25.6274 28.0875 25.6274 28.3348C25.6274 28.6417 25.2827 29.1398 24.662 29.6147Z" fill="#007FB6"/>
</svg>