<?xml version="1.0" encoding="utf-8"?>
<svg xmlns="http://www.w3.org/2000/svg" width="60" height="60" viewBox="0 0 60 60" fill="none">
<circle cx="30" cy="30" r="30" fill="white"/>
<path d="M47.4167 42.0786V28.4997C47.4151 28.4095 47.3921 28.3209 47.3496 28.2413H47.3554L45.9274 25.3859C45.6334 24.7906 45.0263 24.4145 44.3623 24.4164H40.4167V23.8331C40.4166 23.6784 40.3551 23.53 40.2457 23.4206L37.0876 20.2625C36.8777 20.0547 36.618 19.9043 36.3333 19.8255V15.891L37.5 15.5777V16.9905V16.9946C37.4993 17.5936 37.7987 18.1532 38.2974 18.485C38.4708 18.6007 38.6927 18.6151 38.8796 18.5228C39.0665 18.4304 39.1899 18.2454 39.2033 18.0374C39.2168 17.8294 39.1183 17.63 38.9449 17.5144C38.7709 17.3988 38.6664 17.2036 38.6667 16.9946V16.9905V15.2131C39.075 14.9773 39.3012 14.5188 39.2399 14.0513C39.1787 13.5837 38.842 13.199 38.3867 13.0764L30.7998 11.0394C30.6034 10.9869 30.3966 10.9869 30.2002 11.0394L22.6133 13.0764C22.1031 13.2157 21.7492 13.6792 21.7492 14.208C21.7492 14.7369 22.1031 15.2004 22.6133 15.3397L24.6667 15.891V19.7497H24.6299C24.1113 19.75 23.6197 19.9808 23.2882 20.3797L20.7216 23.4597C20.6331 23.5641 20.5842 23.6962 20.5833 23.8331V24.4164H16.6377C15.9743 24.4141 15.3673 24.7892 15.0726 25.3836L13.6446 28.239H13.6504C13.6076 28.3193 13.5846 28.4087 13.5833 28.4997V42.0786C13.2236 42.2853 13.0013 42.6681 13 43.0831V44.2497C13 44.8941 13.5223 45.4164 14.1667 45.4164H21.9122C22.1189 45.7762 22.5017 45.9985 22.9167 45.9997H38.0833C38.4983 45.9985 38.8811 45.7762 39.0878 45.4164H46.8333C47.4777 45.4164 48 44.8941 48 44.2497V43.0831C47.9987 42.6681 47.7764 42.2853 47.4167 42.0786ZM38.6667 41.9164H38.0833V29.0831H46.25V41.9164H38.6667ZM32.25 41.9164H28.75V35.4997H32.25V41.9164ZM32.8333 34.3331H28.1667C27.8445 34.3331 27.5833 34.5942 27.5833 34.9164V41.9164H24.0833V29.0831H36.9167V41.9164H33.4167V34.9164C33.4167 34.5942 33.1555 34.3331 32.8333 34.3331ZM39.25 24.4164V25.5831H21.75V24.4164H39.25ZM38.0833 26.7497V27.9164H22.9167V26.7497H38.0833ZM44.3623 25.5831C44.5834 25.5823 44.7857 25.7075 44.8838 25.9056L45.8895 27.9164H39.25V26.7497C39.8943 26.7497 40.4167 26.2274 40.4167 25.5831H44.3623ZM30.5 12.1664L38.0915 14.208H38.0839L30.5029 16.2497L22.9167 14.2034L30.5 12.1664ZM25.8333 16.2042L30.2002 17.3767C30.3966 17.4296 30.6034 17.4296 30.7998 17.3767L35.1667 16.2042V19.7497H25.8333V16.2042ZM24.1819 21.1264C24.2927 20.9934 24.4568 20.9164 24.6299 20.9164H35.8497C36.0046 20.9163 36.1532 20.9778 36.2627 21.0873L38.4252 23.2497H22.4121L24.1819 21.1264ZM16.1162 25.9056C16.2143 25.7075 16.4165 25.5823 16.6377 25.5831H20.5833C20.5833 26.2274 21.1057 26.7497 21.75 26.7497V27.9164H15.1105L16.1162 25.9056ZM14.1667 43.0831H21.75V44.2497H14.1667V43.0831ZM22.3333 41.9164H14.75V29.0831H22.9167V41.9164H22.3333ZM22.9167 44.8331V43.0831H38.0833V44.8331H22.9167ZM46.8333 44.2497H39.25V43.0831H46.8333V44.2497Z" fill="#007FB6"/>
<path d="M28.7501 30.2496C28.4279 30.2496 28.1667 30.5108 28.1667 30.833V31.9996C28.1667 32.3218 28.4279 32.583 28.7501 32.583C29.0723 32.583 29.3334 32.3218 29.3334 31.9996V30.833C29.3334 30.5108 29.0723 30.2496 28.7501 30.2496Z" fill="#007FB6"/>
<path d="M20.5833 30.8329C20.2612 30.8329 20 31.0941 20 31.4163V32.583C20 32.9051 20.2612 33.1663 20.5833 33.1663C20.9055 33.1663 21.1667 32.9051 21.1667 32.583V31.4163C21.1667 31.0941 20.9055 30.8329 20.5833 30.8329Z" fill="#007FB6"/>
<path d="M17.0833 30.8329C16.7612 30.8329 16.5 31.0941 16.5 31.4163V32.583C16.5 32.9051 16.7612 33.1663 17.0833 33.1663C17.4055 33.1663 17.6667 32.9051 17.6667 32.583V31.4163C17.6667 31.0941 17.4055 30.8329 17.0833 30.8329Z" fill="#007FB6"/>
<path d="M20.5833 34.3329C20.2612 34.3329 20 34.5941 20 34.9163V36.083C20 36.4051 20.2612 36.6663 20.5833 36.6663C20.9055 36.6663 21.1667 36.4051 21.1667 36.083V34.9163C21.1667 34.5941 20.9055 34.3329 20.5833 34.3329Z" fill="#007FB6"/>
<path d="M17.0833 34.3329C16.7612 34.3329 16.5 34.5941 16.5 34.9163V36.083C16.5 36.4051 16.7612 36.6663 17.0833 36.6663C17.4055 36.6663 17.6667 36.4051 17.6667 36.083V34.9163C17.6667 34.5941 17.4055 34.3329 17.0833 34.3329Z" fill="#007FB6"/>
<path d="M20.5833 37.8329C20.2612 37.8329 20 38.0941 20 38.4163V39.583C20 39.9051 20.2612 40.1663 20.5833 40.1663C20.9055 40.1663 21.1667 39.9051 21.1667 39.583V38.4163C21.1667 38.0941 20.9055 37.8329 20.5833 37.8329Z" fill="#007FB6"/>
<path d="M17.0833 37.8329C16.7612 37.8329 16.5 38.0941 16.5 38.4163V39.583C16.5 39.9051 16.7612 40.1663 17.0833 40.1663C17.4055 40.1663 17.6667 39.9051 17.6667 39.583V38.4163C17.6667 38.0941 17.4055 37.8329 17.0833 37.8329Z" fill="#007FB6"/>
<path d="M43.9166 30.8329C43.5944 30.8329 43.3333 31.0941 43.3333 31.4163V32.583C43.3333 32.9051 43.5944 33.1663 43.9166 33.1663C44.2388 33.1663 44.4999 32.9051 44.4999 32.583V31.4163C44.4999 31.0941 44.2388 30.8329 43.9166 30.8329Z" fill="#007FB6"/>
<path d="M40.4166 30.8329C40.0944 30.8329 39.8333 31.0941 39.8333 31.4163V32.583C39.8333 32.9051 40.0944 33.1663 40.4166 33.1663C40.7388 33.1663 40.9999 32.9051 40.9999 32.583V31.4163C40.9999 31.0941 40.7388 30.8329 40.4166 30.8329Z" fill="#007FB6"/>
<path d="M43.9166 34.3329C43.5944 34.3329 43.3333 34.5941 43.3333 34.9163V36.083C43.3333 36.4051 43.5944 36.6663 43.9166 36.6663C44.2388 36.6663 44.4999 36.4051 44.4999 36.083V34.9163C44.4999 34.5941 44.2388 34.3329 43.9166 34.3329Z" fill="#007FB6"/>
<path d="M40.4166 34.3329C40.0944 34.3329 39.8333 34.5941 39.8333 34.9163V36.083C39.8333 36.4051 40.0944 36.6663 40.4166 36.6663C40.7388 36.6663 40.9999 36.4051 40.9999 36.083V34.9163C40.9999 34.5941 40.7388 34.3329 40.4166 34.3329Z" fill="#007FB6"/>
<path d="M43.9166 37.8329C43.5944 37.8329 43.3333 38.0941 43.3333 38.4163V39.583C43.3333 39.9051 43.5944 40.1663 43.9166 40.1663C44.2388 40.1663 44.4999 39.9051 44.4999 39.583V38.4163C44.4999 38.0941 44.2388 37.8329 43.9166 37.8329Z" fill="#007FB6"/>
<path d="M40.4166 37.8329C40.0944 37.8329 39.8333 38.0941 39.8333 38.4163V39.583C39.8333 39.9051 40.0944 40.1663 40.4166 40.1663C40.7388 40.1663 40.9999 39.9051 40.9999 39.583V38.4163C40.9999 38.0941 40.7388 37.8329 40.4166 37.8329Z" fill="#007FB6"/>
<path d="M32.2501 30.2496C31.9279 30.2496 31.6667 30.5108 31.6667 30.833V31.9996C31.6667 32.3218 31.9279 32.583 32.2501 32.583C32.5723 32.583 32.8334 32.3218 32.8334 31.9996V30.833C32.8334 30.5108 32.5723 30.2496 32.2501 30.2496Z" fill="#007FB6"/>
</svg>